<svg xmlns="http://www.w3.org/2000/svg" xmlns:xlink="http://www.w3.org/1999/xlink" width="500" zoomAndPan="magnify" viewBox="0 0 375 374.999991" height="500" preserveAspectRatio="xMidYMid meet" version="1.0"><defs><clipPath id="60bd41f08b"><path d="M 31.097656 22.140625 L 53.460938 22.140625 L 53.460938 45.710938 L 31.097656 45.710938 Z M 31.097656 22.140625 " clip-rule="nonzero"/></clipPath><clipPath id="fa86d377d8"><path d="M 42.300781 27.449219 C 38.398438 28.425781 36.375 30.375 35.699219 31.800781 C 35.25 32.773438 35.25 33.675781 35.398438 34.800781 C 35.699219 36.375 36.824219 39.226562 38.175781 40.199219 C 39.523438 41.101562 42.074219 41.175781 43.425781 40.875 C 44.476562 40.648438 45.226562 40.199219 45.898438 39.300781 C 47.023438 37.800781 48.523438 33.898438 48.449219 32.023438 C 48.449219 30.898438 48.148438 30 47.324219 29.175781 C 46.050781 27.898438 41.625 27.449219 40.648438 26.175781 C 40.125 25.5 39.976562 24.601562 40.199219 23.925781 C 40.425781 23.25 41.175781 22.425781 41.851562 22.273438 C 42.523438 22.050781 43.574219 22.199219 44.101562 22.648438 C 44.699219 23.101562 45.148438 24.074219 45.074219 24.75 C 45.074219 25.5 44.476562 26.398438 43.875 26.773438 C 43.273438 27.148438 42.148438 27.148438 41.550781 26.851562 C 40.875 26.550781 40.199219 25.648438 40.125 24.976562 C 40.050781 24.226562 40.648438 22.726562 41.550781 22.351562 C 43.050781 21.75 47.324219 23.101562 49.199219 24.375 C 50.925781 25.5 52.273438 27.375 52.875 28.949219 C 53.398438 30.300781 53.550781 31.5 53.25 33.148438 C 52.949219 35.550781 51.675781 39.75 49.875 41.851562 C 48.226562 43.726562 45.675781 45 43.574219 45.523438 C 41.699219 45.898438 39.449219 45.523438 37.949219 45.074219 C 36.824219 44.699219 36 44.25 35.175781 43.425781 C 33.898438 42.148438 32.398438 39.449219 31.726562 37.800781 C 31.273438 36.601562 31.199219 35.625 31.125 34.425781 C 31.125 33 30.976562 31.351562 31.648438 29.925781 C 32.476562 28.050781 35.101562 25.574219 36.601562 24.523438 C 37.425781 23.925781 38.101562 23.625 39 23.476562 C 40.199219 23.175781 42.375 22.875 43.199219 23.398438 C 43.800781 23.851562 44.25 25.050781 44.101562 25.726562 C 43.949219 26.398438 42.300781 27.449219 42.300781 27.449219 " clip-rule="nonzero"/></clipPath></defs><path fill="#00bf63" d="M 369.324219 187.105469 C 370.164062 188.367188 370.890625 189.691406 371.507812 191.078125 C 372.121094 192.460938 372.617188 193.886719 372.992188 195.355469 C 373.367188 196.824219 373.613281 198.3125 373.738281 199.824219 C 373.859375 201.335938 373.855469 202.84375 373.722656 204.355469 C 373.589844 205.863281 373.332031 207.351562 372.949219 208.820312 C 372.566406 210.285156 372.0625 211.707031 371.4375 213.089844 C 370.8125 214.46875 370.078125 215.789062 369.234375 217.046875 C 368.386719 218.300781 367.441406 219.480469 366.394531 220.578125 C 365.605469 221.402344 364.875 222.277344 364.199219 223.199219 C 363.523438 224.117188 362.90625 225.078125 362.351562 226.078125 C 361.796875 227.074219 361.308594 228.105469 360.886719 229.167969 C 360.464844 230.226562 360.109375 231.3125 359.824219 232.417969 C 359.539062 233.523438 359.324219 234.644531 359.183594 235.777344 C 359.039062 236.910156 358.96875 238.046875 358.972656 239.1875 C 358.972656 240.332031 359.046875 241.46875 359.195312 242.601562 C 359.34375 243.734375 359.5625 244.851562 359.851562 245.957031 C 360.234375 247.421875 360.492188 248.910156 360.625 250.421875 C 360.757812 251.929688 360.761719 253.441406 360.640625 254.949219 C 360.515625 256.460938 360.269531 257.949219 359.894531 259.417969 C 359.519531 260.886719 359.027344 262.3125 358.410156 263.699219 C 357.796875 265.082031 357.070312 266.40625 356.230469 267.667969 C 355.394531 268.933594 354.453125 270.113281 353.417969 271.21875 C 352.378906 272.320312 351.253906 273.332031 350.046875 274.246094 C 348.839844 275.160156 347.5625 275.964844 346.214844 276.664062 C 345.203125 277.191406 344.226562 277.777344 343.285156 278.429688 C 342.347656 279.078125 341.453125 279.789062 340.605469 280.550781 C 339.757812 281.316406 338.960938 282.132812 338.214844 282.996094 C 337.46875 283.863281 336.78125 284.773438 336.152344 285.726562 C 335.523438 286.679688 334.957031 287.671875 334.453125 288.695312 C 333.953125 289.722656 333.515625 290.777344 333.148438 291.855469 C 332.777344 292.9375 332.480469 294.039062 332.25 295.15625 C 332.023438 296.277344 331.863281 297.40625 331.78125 298.546875 C 331.667969 300.058594 331.429688 301.546875 331.0625 303.019531 C 330.699219 304.488281 330.210938 305.917969 329.605469 307.308594 C 329 308.695312 328.28125 310.023438 327.449219 311.289062 C 326.621094 312.558594 325.6875 313.746094 324.65625 314.855469 C 323.625 315.964844 322.507812 316.980469 321.304688 317.902344 C 320.105469 318.824219 318.832031 319.636719 317.492188 320.34375 C 316.152344 321.050781 314.761719 321.640625 313.320312 322.113281 C 311.882812 322.582031 310.414062 322.929688 308.914062 323.15625 C 307.785156 323.324219 306.667969 323.5625 305.570312 323.875 C 304.46875 324.183594 303.394531 324.566406 302.34375 325.011719 C 301.292969 325.460938 300.273438 325.972656 299.289062 326.550781 C 298.300781 327.128906 297.355469 327.765625 296.453125 328.460938 C 295.546875 329.160156 294.691406 329.914062 293.882812 330.71875 C 293.074219 331.527344 292.320312 332.382812 291.617188 333.285156 C 290.917969 334.1875 290.277344 335.128906 289.699219 336.113281 C 289.117188 337.097656 288.601562 338.117188 288.152344 339.167969 C 287.554688 340.558594 286.847656 341.886719 286.023438 343.160156 C 285.203125 344.429688 284.28125 345.625 283.257812 346.742188 C 282.234375 347.855469 281.125 348.878906 279.929688 349.808594 C 278.734375 350.734375 277.46875 351.558594 276.136719 352.273438 C 274.800781 352.988281 273.417969 353.585938 271.980469 354.066406 C 270.546875 354.546875 269.082031 354.90625 267.585938 355.140625 C 266.089844 355.371094 264.585938 355.480469 263.070312 355.460938 C 261.558594 355.441406 260.054688 355.292969 258.566406 355.019531 C 257.445312 354.8125 256.3125 354.675781 255.171875 354.613281 C 254.03125 354.550781 252.890625 354.558594 251.753906 354.640625 C 250.613281 354.722656 249.484375 354.878906 248.363281 355.105469 C 247.246094 355.328125 246.144531 355.625 245.0625 355.992188 C 243.980469 356.359375 242.925781 356.792969 241.898438 357.292969 C 240.871094 357.792969 239.882812 358.355469 238.925781 358.980469 C 237.972656 359.609375 237.058594 360.292969 236.191406 361.035156 C 235.324219 361.777344 234.507812 362.574219 233.738281 363.417969 C 232.722656 364.542969 231.617188 365.574219 230.429688 366.511719 C 229.238281 367.445312 227.976562 368.277344 226.644531 369 C 225.3125 369.726562 223.929688 370.332031 222.496094 370.824219 C 221.0625 371.3125 219.597656 371.679688 218.101562 371.921875 C 216.609375 372.167969 215.101562 372.28125 213.585938 372.269531 C 212.070312 372.257812 210.566406 372.121094 209.074219 371.855469 C 207.585938 371.589844 206.125 371.199219 204.699219 370.6875 C 203.273438 370.175781 201.898438 369.546875 200.578125 368.804688 C 199.585938 368.242188 198.558594 367.746094 197.5 367.316406 C 196.441406 366.886719 195.359375 366.523438 194.253906 366.230469 C 193.152344 365.941406 192.03125 365.71875 190.898438 365.566406 C 189.769531 365.417969 188.628906 365.339844 187.488281 365.335938 C 186.34375 365.328125 185.207031 365.398438 184.074219 365.535156 C 182.941406 365.675781 181.820312 365.886719 180.710938 366.167969 C 179.605469 366.453125 178.519531 366.804688 177.457031 367.222656 C 176.394531 367.644531 175.367188 368.132812 174.363281 368.683594 C 173.039062 369.414062 171.660156 370.03125 170.226562 370.53125 C 168.796875 371.03125 167.335938 371.40625 165.839844 371.65625 C 164.347656 371.910156 162.839844 372.035156 161.324219 372.03125 C 159.808594 372.03125 158.304688 371.902344 156.8125 371.644531 C 155.320312 371.390625 153.855469 371.007812 152.425781 370.507812 C 151 370.003906 149.621094 369.382812 148.296875 368.648438 C 146.972656 367.910156 145.71875 367.070312 144.535156 366.121094 C 143.351562 365.175781 142.257812 364.136719 141.25 363.003906 C 140.492188 362.148438 139.679688 361.347656 138.820312 360.597656 C 137.957031 359.847656 137.054688 359.152344 136.105469 358.519531 C 135.15625 357.882812 134.167969 357.3125 133.144531 356.800781 C 132.125 356.292969 131.074219 355.851562 129.996094 355.472656 C 128.917969 355.097656 127.816406 354.792969 126.699219 354.558594 C 125.582031 354.320312 124.453125 354.15625 123.316406 354.066406 C 122.175781 353.972656 121.039062 353.953125 119.898438 354.007812 C 118.757812 354.058594 117.621094 354.183594 116.496094 354.382812 C 115.003906 354.648438 113.5 354.785156 111.980469 354.792969 C 110.464844 354.800781 108.957031 354.683594 107.460938 354.4375 C 105.964844 354.191406 104.5 353.824219 103.066406 353.332031 C 101.628906 352.835938 100.246094 352.226562 98.917969 351.5 C 97.585938 350.773438 96.324219 349.9375 95.132812 349 C 93.945312 348.058594 92.839844 347.023438 91.824219 345.898438 C 90.808594 344.769531 89.894531 343.566406 89.085938 342.285156 C 88.273438 341.003906 87.574219 339.664062 86.988281 338.265625 C 86.546875 337.210938 86.042969 336.191406 85.472656 335.199219 C 84.902344 334.210938 84.269531 333.261719 83.578125 332.351562 C 82.886719 331.445312 82.140625 330.582031 81.339844 329.769531 C 80.535156 328.953125 79.6875 328.195312 78.789062 327.488281 C 77.890625 326.785156 76.953125 326.136719 75.972656 325.550781 C 74.992188 324.964844 73.976562 324.445312 72.929688 323.988281 C 71.882812 323.53125 70.8125 323.140625 69.714844 322.820312 C 68.621094 322.5 67.507812 322.25 66.378906 322.070312 C 64.882812 321.835938 63.417969 321.472656 61.980469 320.988281 C 60.546875 320.503906 59.160156 319.902344 57.828125 319.1875 C 56.492188 318.46875 55.226562 317.640625 54.035156 316.710938 C 52.839844 315.777344 51.730469 314.753906 50.710938 313.632812 C 49.6875 312.515625 48.769531 311.316406 47.949219 310.042969 C 47.128906 308.765625 46.425781 307.433594 45.832031 306.039062 C 45.238281 304.644531 44.765625 303.210938 44.414062 301.738281 C 44.0625 300.261719 43.839844 298.769531 43.738281 297.257812 C 43.664062 296.117188 43.519531 294.988281 43.300781 293.867188 C 43.082031 292.746094 42.792969 291.640625 42.433594 290.558594 C 42.074219 289.472656 41.648438 288.414062 41.152344 287.386719 C 40.660156 286.355469 40.101562 285.359375 39.480469 284.402344 C 38.859375 283.441406 38.183594 282.527344 37.445312 281.652344 C 36.707031 280.78125 35.917969 279.957031 35.078125 279.1875 C 34.234375 278.414062 33.347656 277.699219 32.414062 277.039062 C 31.480469 276.378906 30.507812 275.78125 29.5 275.246094 C 28.160156 274.539062 26.890625 273.71875 25.691406 272.796875 C 24.492188 271.871094 23.375 270.851562 22.347656 269.738281 C 21.320312 268.625 20.390625 267.433594 19.5625 266.164062 C 18.734375 264.894531 18.019531 263.566406 17.417969 262.175781 C 16.816406 260.785156 16.332031 259.351562 15.972656 257.882812 C 15.613281 256.410156 15.378906 254.917969 15.269531 253.40625 C 15.160156 251.894531 15.179688 250.386719 15.324219 248.875 C 15.46875 247.367188 15.742188 245.882812 16.140625 244.421875 C 16.4375 243.316406 16.667969 242.199219 16.824219 241.070312 C 16.984375 239.9375 17.070312 238.800781 17.082031 237.65625 C 17.09375 236.515625 17.035156 235.375 16.902344 234.242188 C 16.769531 233.105469 16.566406 231.984375 16.289062 230.875 C 16.015625 229.765625 15.671875 228.679688 15.257812 227.613281 C 14.84375 226.546875 14.363281 225.511719 13.816406 224.507812 C 13.273438 223.503906 12.664062 222.539062 11.996094 221.613281 C 11.328125 220.6875 10.601562 219.804688 9.824219 218.972656 C 8.789062 217.863281 7.851562 216.679688 7.019531 215.414062 C 6.183594 214.148438 5.460938 212.824219 4.847656 211.4375 C 4.238281 210.050781 3.746094 208.625 3.378906 207.152344 C 3.007812 205.683594 2.761719 204.195312 2.644531 202.683594 C 2.527344 201.175781 2.535156 199.664062 2.671875 198.15625 C 2.808594 196.644531 3.070312 195.160156 3.457031 193.695312 C 3.84375 192.230469 4.351562 190.808594 4.980469 189.429688 C 5.605469 188.050781 6.34375 186.730469 7.195312 185.476562 C 7.835938 184.53125 8.414062 183.550781 8.929688 182.53125 C 9.445312 181.511719 9.894531 180.464844 10.277344 179.386719 C 10.660156 178.3125 10.972656 177.214844 11.214844 176.101562 C 11.457031 174.984375 11.628906 173.855469 11.726562 172.71875 C 11.824219 171.582031 11.851562 170.441406 11.804688 169.300781 C 11.757812 168.160156 11.640625 167.027344 11.449219 165.898438 C 11.261719 164.773438 11 163.664062 10.667969 162.570312 C 10.335938 161.476562 9.933594 160.410156 9.464844 159.371094 C 8.847656 157.988281 8.347656 156.5625 7.96875 155.09375 C 7.589844 153.628906 7.335938 152.140625 7.207031 150.628906 C 7.078125 149.121094 7.078125 147.609375 7.207031 146.097656 C 7.332031 144.589844 7.585938 143.101562 7.964844 141.632812 C 8.34375 140.167969 8.84375 138.742188 9.460938 137.359375 C 10.082031 135.976562 10.8125 134.652344 11.652344 133.394531 C 12.496094 132.136719 13.4375 130.953125 14.480469 129.855469 C 15.519531 128.753906 16.648438 127.75 17.859375 126.839844 C 18.769531 126.152344 19.636719 125.410156 20.453125 124.613281 C 21.269531 123.816406 22.035156 122.96875 22.742188 122.074219 C 23.453125 121.179688 24.105469 120.246094 24.695312 119.269531 C 25.285156 118.292969 25.8125 117.28125 26.273438 116.238281 C 26.734375 115.191406 27.128906 114.125 27.457031 113.03125 C 27.78125 111.9375 28.039062 110.824219 28.222656 109.699219 C 28.40625 108.574219 28.519531 107.4375 28.558594 106.296875 C 28.597656 105.15625 28.566406 104.019531 28.460938 102.878906 C 28.328125 101.371094 28.320312 99.863281 28.4375 98.355469 C 28.554688 96.84375 28.800781 95.355469 29.171875 93.886719 C 29.539062 92.417969 30.03125 90.992188 30.640625 89.605469 C 31.253906 88.21875 31.976562 86.894531 32.808594 85.628906 C 33.644531 84.367188 34.578125 83.179688 35.613281 82.074219 C 36.648438 80.96875 37.769531 79.957031 38.972656 79.039062 C 40.179688 78.125 41.453125 77.3125 42.792969 76.609375 C 44.136719 75.910156 45.527344 75.324219 46.964844 74.855469 C 48.054688 74.503906 49.117188 74.085938 50.15625 73.601562 C 51.191406 73.113281 52.191406 72.5625 53.15625 71.949219 C 54.121094 71.335938 55.046875 70.664062 55.925781 69.929688 C 56.804688 69.199219 57.636719 68.414062 58.414062 67.578125 C 59.195312 66.738281 59.917969 65.855469 60.582031 64.921875 C 61.25 63.992188 61.855469 63.023438 62.398438 62.015625 C 62.941406 61.007812 63.417969 59.972656 63.828125 58.902344 C 64.238281 57.835938 64.578125 56.746094 64.847656 55.632812 C 65.210938 54.160156 65.691406 52.730469 66.292969 51.339844 C 66.894531 49.949219 67.609375 48.617188 68.4375 47.347656 C 69.261719 46.078125 70.191406 44.886719 71.21875 43.773438 C 72.246094 42.660156 73.359375 41.640625 74.558594 40.714844 C 75.761719 39.789062 77.03125 38.96875 78.367188 38.257812 C 79.707031 37.546875 81.09375 36.953125 82.53125 36.476562 C 83.972656 36 85.441406 35.648438 86.9375 35.417969 C 88.4375 35.191406 89.941406 35.089844 91.457031 35.113281 C 92.597656 35.132812 93.738281 35.082031 94.875 34.957031 C 96.007812 34.828125 97.132812 34.632812 98.242188 34.363281 C 99.351562 34.097656 100.441406 33.757812 101.507812 33.351562 C 102.574219 32.945312 103.613281 32.472656 104.617188 31.933594 C 105.625 31.394531 106.59375 30.792969 107.527344 30.128906 C 108.457031 29.46875 109.339844 28.75 110.179688 27.972656 C 111.019531 27.199219 111.804688 26.375 112.539062 25.5 C 113.273438 24.625 113.949219 23.707031 114.566406 22.746094 C 115.382812 21.472656 116.304688 20.273438 117.324219 19.152344 C 118.34375 18.035156 119.453125 17.007812 120.644531 16.074219 C 121.839844 15.144531 123.101562 14.316406 124.433594 13.597656 C 125.769531 12.878906 127.152344 12.277344 128.585938 11.789062 C 130.019531 11.304688 131.488281 10.941406 132.984375 10.703125 C 134.476562 10.464844 135.984375 10.355469 137.5 10.371094 C 139.011719 10.386719 140.515625 10.527344 142.007812 10.796875 C 143.496094 11.066406 144.953125 11.460938 146.378906 11.976562 C 147.453125 12.363281 148.546875 12.683594 149.660156 12.933594 C 150.777344 13.1875 151.902344 13.363281 153.039062 13.472656 C 154.179688 13.578125 155.316406 13.613281 156.460938 13.574219 C 157.601562 13.535156 158.738281 13.425781 159.863281 13.242188 C 160.992188 13.058594 162.105469 12.804688 163.199219 12.480469 C 164.296875 12.15625 165.367188 11.765625 166.410156 11.304688 C 167.457031 10.84375 168.46875 10.316406 169.449219 9.726562 C 170.425781 9.136719 171.363281 8.488281 172.257812 7.777344 C 173.449219 6.839844 174.707031 6.003906 176.035156 5.277344 C 177.363281 4.550781 178.746094 3.9375 180.175781 3.441406 C 181.609375 2.949219 183.070312 2.578125 184.566406 2.332031 C 186.0625 2.082031 187.566406 1.960938 189.082031 1.96875 C 190.597656 1.976562 192.101562 2.109375 193.59375 2.371094 C 195.085938 2.632812 196.546875 3.015625 197.972656 3.523438 C 199.402344 4.03125 200.777344 4.65625 202.097656 5.394531 C 203.421875 6.132812 204.671875 6.980469 205.851562 7.929688 C 206.742188 8.648438 207.671875 9.304688 208.644531 9.902344 C 209.617188 10.5 210.625 11.035156 211.664062 11.503906 C 212.707031 11.976562 213.773438 12.378906 214.867188 12.710938 C 215.957031 13.046875 217.066406 13.308594 218.191406 13.503906 C 219.320312 13.695312 220.453125 13.816406 221.59375 13.867188 C 222.734375 13.914062 223.875 13.890625 225.011719 13.792969 C 226.152344 13.699219 227.277344 13.53125 228.394531 13.289062 C 229.511719 13.050781 230.609375 12.742188 231.6875 12.359375 C 233.117188 11.855469 234.578125 11.476562 236.070312 11.21875 C 237.5625 10.960938 239.070312 10.832031 240.585938 10.828125 C 242.097656 10.828125 243.605469 10.949219 245.097656 11.203125 C 246.59375 11.453125 248.054688 11.828125 249.488281 12.328125 C 250.917969 12.824219 252.296875 13.441406 253.625 14.171875 C 254.953125 14.902344 256.207031 15.742188 257.394531 16.683594 C 258.578125 17.628906 259.679688 18.664062 260.6875 19.792969 C 261.699219 20.921875 262.609375 22.128906 263.414062 23.410156 C 264.023438 24.378906 264.691406 25.304688 265.417969 26.183594 C 266.140625 27.066406 266.921875 27.898438 267.753906 28.683594 C 268.585938 29.464844 269.460938 30.191406 270.386719 30.863281 C 271.3125 31.535156 272.273438 32.144531 273.277344 32.691406 C 274.277344 33.242188 275.3125 33.722656 276.375 34.140625 C 277.4375 34.554688 278.523438 34.902344 279.632812 35.183594 C 280.742188 35.460938 281.863281 35.667969 282.996094 35.804688 C 284.128906 35.9375 285.269531 36.003906 286.410156 35.992188 C 287.925781 35.980469 289.429688 36.09375 290.925781 36.335938 C 292.421875 36.578125 293.886719 36.945312 295.324219 37.433594 C 296.757812 37.921875 298.140625 38.527344 299.472656 39.253906 C 300.804688 39.976562 302.066406 40.804688 303.257812 41.742188 C 304.449219 42.675781 305.550781 43.707031 306.570312 44.828125 C 307.589844 45.953125 308.503906 47.152344 309.320312 48.429688 C 310.132812 49.707031 310.835938 51.042969 311.425781 52.4375 C 312.015625 53.835938 312.484375 55.269531 312.828125 56.746094 C 313.089844 57.859375 313.421875 58.949219 313.824219 60.019531 C 314.226562 61.09375 314.691406 62.132812 315.226562 63.144531 C 315.761719 64.15625 316.355469 65.128906 317.011719 66.0625 C 317.671875 66.996094 318.386719 67.886719 319.15625 68.730469 C 319.925781 69.574219 320.75 70.367188 321.621094 71.105469 C 322.492188 71.847656 323.410156 72.527344 324.367188 73.148438 C 325.328125 73.773438 326.320312 74.332031 327.351562 74.828125 C 328.378906 75.324219 329.4375 75.753906 330.523438 76.113281 C 331.960938 76.59375 333.347656 77.191406 334.683594 77.90625 C 336.019531 78.621094 337.285156 79.441406 338.480469 80.371094 C 339.679688 81.300781 340.789062 82.324219 341.816406 83.4375 C 342.839844 84.554688 343.761719 85.75 344.585938 87.019531 C 345.410156 88.292969 346.121094 89.625 346.71875 91.015625 C 347.316406 92.410156 347.792969 93.84375 348.148438 95.316406 C 348.503906 96.789062 348.734375 98.28125 348.839844 99.792969 C 348.941406 101.300781 348.917969 102.8125 348.769531 104.320312 C 348.65625 105.457031 348.613281 106.597656 348.644531 107.738281 C 348.675781 108.878906 348.78125 110.015625 348.957031 111.144531 C 349.132812 112.273438 349.378906 113.386719 349.695312 114.484375 C 350.015625 115.582031 350.398438 116.652344 350.855469 117.703125 C 351.308594 118.75 351.828125 119.765625 352.410156 120.746094 C 352.992188 121.730469 353.636719 122.671875 354.339844 123.570312 C 355.042969 124.472656 355.800781 125.324219 356.613281 126.128906 C 357.425781 126.933594 358.285156 127.679688 359.191406 128.375 C 360.394531 129.296875 361.507812 130.308594 362.539062 131.417969 C 363.570312 132.527344 364.5 133.714844 365.328125 134.980469 C 366.160156 136.246094 366.878906 137.574219 367.484375 138.960938 C 368.089844 140.347656 368.574219 141.773438 368.941406 143.242188 C 369.304688 144.710938 369.546875 146.199219 369.660156 147.710938 C 369.773438 149.21875 369.757812 150.726562 369.617188 152.234375 C 369.476562 153.742188 369.210938 155.226562 368.820312 156.6875 C 368.429688 158.148438 367.917969 159.570312 367.289062 160.945312 C 366.808594 161.984375 366.398438 163.046875 366.054688 164.140625 C 365.710938 165.230469 365.441406 166.339844 365.238281 167.464844 C 365.035156 168.589844 364.90625 169.726562 364.851562 170.867188 C 364.792969 172.007812 364.808594 173.152344 364.898438 174.289062 C 364.988281 175.429688 365.148438 176.5625 365.382812 177.679688 C 365.613281 178.800781 365.917969 179.902344 366.292969 180.980469 C 366.664062 182.0625 367.105469 183.117188 367.613281 184.140625 C 368.121094 185.164062 368.691406 186.152344 369.324219 187.105469 Z M 369.324219 187.105469 " fill-opacity="1" fill-rule="nonzero"/><path fill="#fffef4" d="M 169.789062 190.695312 L 123.367188 144.28125 L 85.261719 182.378906 L 169.789062 266.90625 L 207.894531 228.800781 L 291.425781 145.273438 L 253.320312 107.167969 Z M 169.789062 190.695312 " fill-opacity="1" fill-rule="nonzero"/><g clip-path="url(#60bd41f08b)"><g clip-path="url(#fa86d377d8)"><path fill="#ffffff" d="M 28.125 19.273438 L 56.324219 19.273438 L 56.324219 48.578125 L 28.125 48.578125 Z M 28.125 19.273438 " fill-opacity="1" fill-rule="nonzero"/></g></g></svg>